<?xml version="1.0" encoding="UTF-8"?> <!-- Generator: Adobe Illustrator 19.0.0, SVG Export Plug-In . SVG Version: 6.00 Build 0) --> <svg class="stroke-current" xmlns="http://www.w3.org/2000/svg" xmlns:xlink="http://www.w3.org/1999/xlink" id="Layer_1" x="0px" y="0px" viewBox="0 0 209.4 57.6" style="enable-background:new 0 0 209.4 57.6;" xml:space="preserve"> <style type="text/css"> .st0{fill:#00A8CB;} .st1{fill:#FFFFFF;} .st2{fill:#6C6C6C;} </style> <g id="XMLID_968_"> <circle id="XMLID_1681_" class="st0" cx="31.4" cy="29.7" r="27.1"></circle> <g id="XMLID_1072_"> <path id="XMLID_1680_" class="st1" d="M48.2,21.6l-1,0c0,0-0.9,0-2.7,0h-8.8c-1-2.5-2.7-4.7-4.9-6.1h9.5H52 c1.6,2.3,2.9,4.8,3.7,7.6L42.9,38.5c0,0,3.9,0,5.7,0H55c-0.9,2.4-2.2,4.7-3.9,6.7H40v0H28.6L48.2,21.6z"></path> <path id="XMLID_1073_" class="st1" d="M21.5,45.2h3l5.5-6.7h-8c-4.4,0-8.1-2.2-8.7-7.3h20c0,0,0.2-1.8,0.2-2.7 c0-7.7-4.5-13.8-12.9-13.8c-5.9,0-10.5,2.9-12.9,7.5c-0.8,2.4-1.2,4.9-1.2,7.5c0,2.8,0.5,5.4,1.3,7.9 C10.4,42.1,15.1,45.2,21.5,45.2z M20.7,20.4c3,0,5.3,2.4,5.5,5.9H13.5C14.3,22.6,17,20.4,20.7,20.4z"></path> </g> </g> <path id="XMLID_768_" class="st2" d="M88.3,31.7c-0.8-0.9-1.8-1.6-3.1-2c0.9-0.5,1.6-1.1,2.2-1.9c0.7-1,1.1-2.2,1.1-3.6 c0-2.1-0.8-3.7-2.4-4.9c-1.6-1.1-3.7-1.7-6.5-1.7H68.6v25.1h11.6c3.1,0,5.5-0.6,7.1-1.8c1.6-1.2,2.4-2.9,2.4-5.1 C89.7,34.2,89.3,32.7,88.3,31.7z M83.8,27.5c-1,0.7-2.5,1.1-4.4,1.1h-7.6v-8.4h7.6c1.9,0,3.4,0.4,4.4,1.1c1,0.7,1.5,1.7,1.5,3.1 S84.8,26.8,83.8,27.5z M71.8,31.3h8.4c4.3,0,6.4,1.4,6.4,4.3c0,1.5-0.5,2.6-1.6,3.3c-1.1,0.7-2.7,1.1-4.8,1.1h-8.4V31.3z"></path> <g id="XMLID_339_"> <path id="XMLID_353_" class="st2" d="M96.2,41.1c-1.8-1-3.3-2.5-4.3-4.3c-1.1-1.8-1.6-3.9-1.6-6.2c0-2.3,0.5-4.4,1.6-6.2 c1-1.8,2.5-3.3,4.3-4.3c1.8-1,3.9-1.5,6.2-1.5c2.3,0,4.3,0.5,6.2,1.5c1.8,1,3.3,2.4,4.3,4.3c1,1.8,1.6,3.9,1.6,6.2 c0,2.3-0.5,4.4-1.6,6.2c-1,1.8-2.5,3.3-4.3,4.3c-1.8,1-3.9,1.6-6.2,1.6C100.1,42.6,98,42.1,96.2,41.1z M106.9,38.7 c1.3-0.8,2.4-1.9,3.1-3.3c0.8-1.4,1.1-3,1.1-4.8c0-1.8-0.4-3.4-1.1-4.8s-1.8-2.5-3.1-3.3c-1.3-0.8-2.8-1.1-4.5-1.1 c-1.7,0-3.2,0.4-4.5,1.1c-1.3,0.8-2.4,1.9-3.2,3.3c-0.8,1.4-1.2,3-1.2,4.8c0,1.8,0.4,3.4,1.2,4.8c0.8,1.4,1.8,2.5,3.2,3.3 c1.3,0.8,2.8,1.1,4.5,1.1C104,39.8,105.5,39.4,106.9,38.7z"></path> </g> <g id="XMLID_248_"> <path id="XMLID_274_" class="st2" d="M121.3,41.1c-1.8-1-3.3-2.5-4.3-4.3c-1.1-1.8-1.6-3.9-1.6-6.2c0-2.3,0.5-4.4,1.6-6.2 c1.1-1.8,2.5-3.3,4.3-4.3c1.8-1,3.9-1.5,6.2-1.5c2.3,0,4.3,0.5,6.2,1.5c1.8,1,3.3,2.4,4.3,4.3c1,1.8,1.6,3.9,1.6,6.2 c0,2.3-0.5,4.4-1.6,6.2c-1,1.8-2.5,3.3-4.3,4.3c-1.8,1-3.9,1.6-6.2,1.6C125.1,42.6,123.1,42.1,121.3,41.1z M132,38.7 c1.3-0.8,2.4-1.9,3.1-3.3c0.7-1.4,1.1-3,1.1-4.8c0-1.8-0.4-3.4-1.1-4.8c-0.8-1.4-1.8-2.5-3.1-3.3c-1.3-0.8-2.8-1.1-4.5-1.1 c-1.7,0-3.2,0.4-4.5,1.1c-1.3,0.8-2.4,1.9-3.2,3.3c-0.8,1.4-1.2,3-1.2,4.8c0,1.8,0.4,3.4,1.2,4.8c0.8,1.4,1.8,2.5,3.2,3.3 c1.3,0.8,2.8,1.1,4.5,1.1C129.1,39.8,130.6,39.4,132,38.7z"></path> </g> <polygon id="XMLID_212_" class="st2" points="150.7,29.5 161.2,18.5 157.5,18.5 144.1,32.4 144.1,18.5 141,18.5 141,42.7 144.1,42.7 144.1,36.3 148.6,31.7 158.1,42.6 158.1,42.7 161.8,42.7 "></polygon> <g id="XMLID_177_"> <path id="XMLID_179_" class="st2" d="M182.4,31.6h-19.8c0.2,2.5,1.1,4.5,2.8,6c1.7,1.5,3.9,2.3,6.5,2.3c1.5,0,2.8-0.3,4.1-0.8 c1.2-0.5,2.3-1.3,3.2-2.3l1.8,2.1c-1.1,1.3-2.4,2.2-3.9,2.9c-1.6,0.7-3.3,1-5.2,1c-2.4,0-4.6-0.5-6.5-1.6c-1.9-1-3.3-2.5-4.4-4.3 c-1.1-1.8-1.6-3.9-1.6-6.2c0-2.3,0.5-4.4,1.5-6.2c1-1.8,2.4-3.3,4.1-4.3c1.8-1,3.7-1.5,5.9-1.5c2.2,0,4.2,0.5,5.9,1.5 c1.7,1,3.1,2.4,4.1,4.3c1,1.8,1.5,3.9,1.5,6.2L182.4,31.6z M165.2,23.5c-1.5,1.5-2.4,3.4-2.6,5.7h16.8c-0.2-2.3-1.1-4.2-2.6-5.7 c-1.5-1.5-3.5-2.2-5.8-2.2C168.6,21.3,166.7,22,165.2,23.5z"></path> </g> <path id="XMLID_105_" class="st2" d="M198.3,34.6c1.6-0.6,2.9-1.5,3.8-2.8c1-1.3,1.5-3,1.5-4.9c0-2.6-0.9-4.7-2.7-6.2 c-1.8-1.5-4.2-2.3-7.4-2.3h-9.2v24.5h3.1v-7.6h6.2c0.6,0,1.2,0,1.8-0.1l5.5,7.7h3.4L198.3,34.6z M187.4,21.2h6.1 c2.3,0,4.1,0.5,5.3,1.5c1.2,1,1.8,2.4,1.8,4.3c0,1.8-0.6,3.2-1.8,4.2c-1.2,1-3,1.5-5.3,1.5h-6.1V21.2z"></path> </svg>
